<?xml version="1.0" encoding="UTF-8"?>
<svg version="1.1" xmlns="http://www.w3.org/2000/svg" width="92" height="112">
<path d="M0 0 C1.80307617 0.00483398 1.80307617 0.00483398 3.64257812 0.00976562 C4.88845703 0.01814453 6.13433594 0.02652344 7.41796875 0.03515625 C8.68318359 0.03966797 9.94839844 0.04417969 11.25195312 0.04882812 C14.36983985 0.06059374 17.48763008 0.07703353 20.60546875 0.09765625 C19.45832101 5.53773033 18.15637751 10.85311185 16.48046875 16.16015625 C16.12726562 17.28550781 15.7740625 18.41085938 15.41015625 19.5703125 C15.14460938 20.40433594 14.8790625 21.23835938 14.60546875 22.09765625 C13.94546875 22.09765625 13.28546875 22.09765625 12.60546875 22.09765625 C12.26515625 23.67546875 12.26515625 23.67546875 11.91796875 25.28515625 C9.67285033 34.10862865 7.0475397 44.24434202 -0.39453125 50.09765625 C-5.14275338 52.90456986 -8.87916922 54.1895314 -14.39453125 54.09765625 C-12.10152076 46.12622683 -9.44320529 38.30151786 -6.70703125 30.47265625 C-6.29130859 29.27769531 -5.87558594 28.08273438 -5.44726562 26.8515625 C-4.43158274 23.93293352 -3.41332271 21.01520159 -2.39453125 18.09765625 C-10.31453125 18.09765625 -18.23453125 18.09765625 -26.39453125 18.09765625 C-25.09979398 11.62396991 -22.08837858 8.56716529 -17.39453125 4.09765625 C-11.74997554 0.55597423 -6.5682971 -0.03112937 0 0 Z " fill="#3A82B4" transform="translate(32.39453125,38.90234375)"/>
<path d="M0 0 C7.71006106 6.44114224 13.16143575 15.75707039 14.1875 25.8125 C14.78519778 37.76645564 12.04844824 47.27410415 3.95703125 56.30078125 C-5.32217122 65.31444215 -13.92991568 67.16065953 -26.44335938 67.19360352 C-30.92433481 67.10294511 -34.5952939 66.48865505 -38.8125 64.8125 C-38.1525 63.4925 -37.4925 62.1725 -36.8125 60.8125 C-35.54535156 60.85890625 -34.27820313 60.9053125 -32.97265625 60.953125 C-20.26585113 61.57860728 -20.26585113 61.57860728 -8.8125 56.8125 C-8.1834375 56.38839844 -7.554375 55.96429688 -6.90625 55.52734375 C-0.15306164 50.39091447 3.42440669 43.17565889 4.90625 34.92578125 C6.03461658 26.44736017 4.44454779 18.60881742 -0.5 11.5625 C-7.51868468 3.04718402 -15.41714772 -0.39514083 -26.3125 -1.5625 C-34.99531533 -0.63219836 -42.56072409 1.46496385 -48.8125 7.8125 C-51.55138564 11.32608158 -53.98590545 14.94108994 -55.7890625 19.0234375 C-56.8125 20.8125 -56.8125 20.8125 -59.8125 21.8125 C-59.38240264 13.64065016 -54.3121871 6.90174164 -48.5625 1.4375 C-34.70907511 -10.1460225 -14.50571085 -10.41311463 0 0 Z " fill="#3C83B5" transform="translate(76.8125,19.1875)"/>
<path d="M0 0 C1.02158203 0.00322266 2.04316406 0.00644531 3.09570312 0.00976562 C4.15080078 0.01814453 5.20589844 0.02652344 6.29296875 0.03515625 C7.36740234 0.03966797 8.44183594 0.04417969 9.54882812 0.04882812 C12.19276558 0.06057896 14.83658827 0.07700838 17.48046875 0.09765625 C16.86171875 0.40469482 16.24296875 0.7117334 15.60546875 1.02807617 C8.13523654 4.78808161 3.30152959 8.45553457 -0.51953125 16.09765625 C-8.43953125 16.09765625 -16.35953125 16.09765625 -24.51953125 16.09765625 C-22.94864077 9.81409435 -18.86038617 5.5489863 -13.39453125 2.16015625 C-8.87867959 0.49125455 -4.80180478 -0.02682573 0 0 Z " fill="#1F5274" transform="translate(31.51953125,38.90234375)"/>
<path d="M0 0 C-0.26401995 1.31388752 -0.53675364 2.62602339 -0.8125 3.9375 C-0.96332031 4.66839844 -1.11414062 5.39929687 -1.26953125 6.15234375 C-2.29829211 10.1628607 -3.69070267 14.072108 -5 18 C-18.86 18 -32.72 18 -47 18 C-46.505 16.515 -46.505 16.515 -46 15 C-38.08 15.33 -30.16 15.66 -22 16 C-21.34 14.02 -20.68 12.04 -20 10 C-14.8261823 3.74526733 -8.17597224 0 0 0 Z " fill="#2376A4" transform="translate(53,39)"/>
<path d="M0 0 C-0.4577719 1.68765239 -0.9162489 3.37511352 -1.375 5.0625 C-1.63023438 6.00222656 -1.88546875 6.94195312 -2.1484375 7.91015625 C-3.07704511 11.2795536 -4.03984472 14.63945652 -5 18 C-11.6 18 -18.2 18 -25 18 C-23.70733525 11.53667624 -20.76616815 8.40084688 -16 4 C-11.08473711 0.88398467 -5.73069066 0 0 0 Z " fill="#28597A" transform="translate(76,39)"/>
<path d="M0 0 C0.99 0 1.98 0 3 0 C3.89171173 1.7624772 4.76292656 3.53533791 5.625 5.3125 C6.11226562 6.29863281 6.59953125 7.28476563 7.1015625 8.30078125 C7.39804687 9.19152344 7.69453125 10.08226563 8 11 C7.01 12.485 7.01 12.485 6 14 C4.99515796 12.04414675 3.99626195 10.08523763 3 8.125 C2.1646875 6.48917969 2.1646875 6.48917969 1.3125 4.8203125 C0 2 0 2 0 0 Z " fill="#4589B9" transform="translate(17,58)"/>
</svg>
